<svg height="510" width="720" xmlns="http://www.w3.org/2000/svg">
<rect height="510" fill="#555" width="720"></rect>
<text fill="#7f7" font-family="Courier New" font-size="12" xml:space="preserve">
<tspan x="10" y="26">8 megabytes installed</tspan>
<tspan x="10" y="42"></tspan>
<tspan x="10" y="58">node_modules</tspan>
<tspan x="10" y="74">└─┬ stratum-solo@0.0.1 </tspan>
<tspan x="10" y="90">  └─┬ stratum@0.2.4 </tspan>
<tspan x="10" y="106">    ├── better-curry@1.6.0 </tspan>
<tspan x="10" y="122">    ├── bluebird@2.11.0 </tspan>
<tspan x="10" y="138">    ├─┬ chalk@1.1.3 </tspan>
<tspan x="10" y="154">    │ ├── ansi-styles@2.2.1 </tspan>
<tspan x="10" y="170">    │ ├── escape-string-regexp@1.0.5 </tspan>
<tspan x="10" y="186">    │ ├─┬ has-ansi@2.0.0 </tspan>
<tspan x="10" y="202">    │ │ └── ansi-regex@2.1.1 </tspan>
<tspan x="10" y="218">    │ ├── strip-ansi@3.0.1 </tspan>
<tspan x="10" y="234">    │ └── supports-color@2.0.0 </tspan>
<tspan x="10" y="250">    ├─┬ commander@2.9.0 </tspan>
<tspan x="10" y="266">    │ └── graceful-readlink@1.0.1 </tspan>
<tspan x="10" y="282">    ├─┬ debug@2.6.4 </tspan>
<tspan x="10" y="298">    │ └── ms@0.7.3 </tspan>
<tspan x="10" y="314">    ├── es5class@1.1.3 </tspan>
<tspan x="10" y="330">    ├── eventemitter3@1.2.0 </tspan>
<tspan x="10" y="346">    ├─┬ json-rpc2@1.0.2 </tspan>
<tspan x="10" y="362">    │ ├── es5class@2.3.1 </tspan>
<tspan x="10" y="378">    │ ├─┬ faye-websocket@0.11.1 </tspan>
<tspan x="10" y="394">    │ │ └─┬ websocket-driver@0.6.5 </tspan>
<tspan x="10" y="410">    │ │   └── websocket-extensions@0.1.1 </tspan>
<tspan x="10" y="426">    │ ├── jsonparse@1.3.0 </tspan>
<tspan x="10" y="442">    │ └── object-assign@4.1.1 </tspan>
<tspan x="10" y="458">    ├── lodash@3.10.1 </tspan>
<tspan x="10" y="474">    ├── toobusy-js@0.5.1 </tspan>
<tspan x="10" y="490">    └── uuid@3.0.1</tspan>
</text>
</svg>
